<svg width="15" height="17" viewBox="0 0 15 17" fill="none" xmlns="http://www.w3.org/2000/svg">
<g clip-path="url(#clip0_151_147)">
<path d="M15 8.03571C15 3.59771 11.6421 0 7.5 0C3.35786 0 0 3.59771 0 8.03571C0 12.0465 2.74263 15.371 6.32812 15.9738V10.3585H4.42383V8.03571H6.32812V6.26535C6.32812 4.2514 7.44785 3.13895 9.16099 3.13895C9.9813 3.13895 10.8398 3.2959 10.8398 3.2959V5.27344H9.89414C8.9625 5.27344 8.67188 5.89291 8.67188 6.52902V8.03571H10.752L10.4194 10.3585H8.67188V15.9738C12.2574 15.371 15 12.0465 15 8.03571Z" fill="#1877F2"/>
<path d="M10.4194 10.3585L10.752 8.03571H8.67188V6.52901C8.67188 5.89353 8.9625 5.27343 9.89414 5.27343H10.8398V3.29589C10.8398 3.29589 9.98159 3.13895 9.16099 3.13895C7.44785 3.13895 6.32812 4.25139 6.32812 6.26534V8.03571H4.42383V10.3585H6.32812V15.9738C7.10465 16.104 7.89535 16.104 8.67188 15.9738V10.3585H10.4194Z" fill="white"/>
</g>
<defs>
<clipPath id="clip0_151_147">
<rect width="15" height="16.0714" fill="white"/>
</clipPath>
</defs>
</svg>
