<svg width="170" height="170" viewBox="0 0 170 170" fill="none" xmlns="http://www.w3.org/2000/svg">
<circle cx="85" cy="85" r="85" fill="#E0DCDC"/>
<ellipse cx="82.7628" cy="57.2583" rx="25.3833" ry="25.3833" fill="black" stroke="black" stroke-width="1.5" stroke-linecap="round" stroke-linejoin="round"/>
<path fill-rule="evenodd" clip-rule="evenodd" d="M42.5001 117.945C42.4933 116.161 42.8923 114.398 43.6671 112.79C46.0985 107.928 52.9549 105.351 58.6442 104.184C62.7474 103.308 66.9072 102.723 71.0928 102.433C78.842 101.752 86.6359 101.752 94.3851 102.433C98.5703 102.726 102.73 103.311 106.834 104.184C112.523 105.351 119.379 107.685 121.811 112.79C123.369 116.067 123.369 119.871 121.811 123.148C119.379 128.254 112.523 130.588 106.834 131.706C102.735 132.618 98.5739 133.22 94.3851 133.506C88.0779 134.04 81.7412 134.138 75.4206 133.797C73.9618 133.797 72.5516 133.797 71.0928 133.506C66.9196 133.223 62.7742 132.622 58.6929 131.706C52.9549 130.588 46.1471 128.254 43.6671 123.148C42.8963 121.522 42.4976 119.744 42.5001 117.945Z" fill="black" stroke="black" stroke-width="1.5" stroke-linecap="round" stroke-linejoin="round"/>
</svg>
