<svg width="28" height="32" viewBox="0 0 28 32" fill="none" xmlns="http://www.w3.org/2000/svg">
<path d="M24.1898 1C24.1898 1 24.1898 1 24.1898 1H20.5508C20.1301 1 19.7891 1.39161 19.7891 1.87466C19.7891 2.35771 20.1301 2.74932 20.5508 2.74932H24.1898C24.8993 2.74932 25.4766 3.41219 25.4766 4.22697V8.40545C25.4766 8.8885 25.8176 9.28011 26.2383 9.28011C26.659 9.28011 27 8.8885 27 8.40545V4.22697C27 2.44762 25.7393 1 24.1898 1C24.1898 1 24.1898 1 24.1898 1Z" fill="black" stroke="black" stroke-width="0.5"/>
<path d="M1.76172 9.28011C2.18239 9.28011 2.52344 8.8885 2.52344 8.40545V4.22697C2.52344 3.41219 3.10072 2.74932 3.81023 2.74932H7.44922C7.86989 2.74932 8.21094 2.35771 8.21094 1.87466C8.21094 1.39161 7.86989 1 7.44922 1H3.81023C2.2607 1 1 2.44762 1 4.22697V8.40545C1 8.8885 1.34105 9.28011 1.76172 9.28011Z" fill="black" stroke="black" stroke-width="0.5"/>
<path d="M7.44922 29.1057H3.81023C3.10072 29.1057 2.52344 28.4428 2.52344 27.628V23.4495C2.52344 22.9665 2.18239 22.5749 1.76172 22.5749C1.34105 22.5749 1 22.9665 1 23.4495V27.628C1 29.4074 2.2607 30.855 3.81023 30.855H7.44922C7.86989 30.855 8.21094 30.4634 8.21094 29.9803C8.21094 29.4973 7.86989 29.1057 7.44922 29.1057Z" fill="black" stroke="black" stroke-width="0.5"/>
<path d="M26.2383 22.5749C25.8176 22.5749 25.4766 22.9665 25.4766 23.4495V27.628C25.4766 28.4428 24.8993 29.1057 24.1898 29.1057H20.5508C20.1301 29.1057 19.7891 29.4973 19.7891 29.9803C19.7891 30.4634 20.1301 30.855 20.5508 30.855H24.1898C25.7394 30.855 27 29.4074 27 27.628V23.4495C27 22.9665 26.659 22.5749 26.2383 22.5749Z" fill="black" stroke="black" stroke-width="0.5"/>
<path d="M1.05078 15.9275C1.05078 16.4105 1.39183 16.8021 1.8125 16.8021H26.1875C26.6082 16.8021 26.9492 16.4105 26.9492 15.9275C26.9492 15.4444 26.6082 15.0528 26.1875 15.0528H1.8125C1.39183 15.0528 1.05078 15.4444 1.05078 15.9275Z" fill="black" stroke="black" stroke-width="0.5"/>
</svg>
