<svg width="15" height="15" viewBox="0 0 15 15" fill="none" xmlns="http://www.w3.org/2000/svg">
<path d="M7.5 15C11.6421 15 15 11.6421 15 7.5C15 3.35786 11.6421 0 7.5 0C3.35786 0 0 3.35786 0 7.5C0 11.6421 3.35786 15 7.5 15Z" fill="url(#paint0_linear_151_150)"/>
<path fill-rule="evenodd" clip-rule="evenodd" d="M3.39495 7.42084C5.58135 6.46826 7.0393 5.84026 7.76878 5.53685C9.85161 4.67053 10.2844 4.52004 10.5665 4.51507C10.6285 4.51397 10.7673 4.52935 10.8571 4.60227C10.933 4.66383 10.9539 4.747 10.9639 4.80537C10.9739 4.86375 10.9863 4.99672 10.9764 5.10062C10.8635 6.28655 10.3751 9.16448 10.1267 10.4927C10.0216 11.0548 9.81454 11.2432 9.61413 11.2617C9.17859 11.3017 8.84786 10.9738 8.42602 10.6973C7.76593 10.2646 7.39301 9.99525 6.75227 9.57301C6.01179 9.08504 6.49181 8.81685 6.91381 8.37854C7.02425 8.26383 8.94325 6.51836 8.98039 6.36002C8.98504 6.34021 8.98935 6.2664 8.94549 6.22742C8.90164 6.18844 8.83692 6.20177 8.79021 6.21237C8.724 6.2274 7.66949 6.92439 5.62667 8.30335C5.32735 8.50889 5.05623 8.60903 4.81332 8.60379C4.54553 8.598 4.03041 8.45237 3.64748 8.3279C3.17779 8.17522 2.80449 8.0945 2.837 7.83521C2.85393 7.70015 3.03991 7.56203 3.39495 7.42084Z" fill="white"/>
<defs>
<linearGradient id="paint0_linear_151_150" x1="7.5" y1="0" x2="7.5" y2="14.8888" gradientUnits="userSpaceOnUse">
<stop stop-color="#2AABEE"/>
<stop offset="1" stop-color="#229ED9"/>
</linearGradient>
</defs>
</svg>
